# xmcd
#
# Track frame offsets: 
#        182
#        11395
#        20930
#        32715
#        44290
#        57755
#        84652
#        94270
#        108177
#        117670
#        129110
#        139442
#        147670
#
# Disc length: 2120 seconds
#
# Revision: 27
# Processed by: cddbd v1.5.1PL0 Copyright (c) Steve Scherf et al.
# Submitted via: ExactAudioCopy v0.95a5
#
DISCID=b708460d
DTITLE=Various Artist - The Soul of Texas Blues Women- Good Ol' Texas
DTITLE=60s Soul and Blues
DYEAR=1991
DGENRE=Blues
TTITLE0=Levenia Lewis - So Many Times
TTITLE1=Big Martha - You Horny Old Buzzard, You Dirty Old Man
TTITLE2=Rose Marie - My Wish
TTITLE3=Rose Marie - My Man
TTITLE4=Millie Esperson - We've Got Love
TTITLE5=Lou Ann Barton - I Feel Like Breaking Up Somebody's Home
TTITLE6=Helen Wilson - Do What You Did Yesterday
TTITLE7=Lou Ann Barton - I'm Just Your Fool
TTITLE8=Tammy James - That's Fat Jack
TTITLE9=Mabel Franklin - Come On and Go
TTITLE10=Millie Esperson - Just Another Seaweed
TTITLE11=Levenia Lewis - Nobody Gonna Take My Man
TTITLE12=Big Martha - Your Magic Touch Done Quit
EXTD=LABEL =Collectables Records Corp.\nID =COL-CD-5222\nUPC =09431
EXTD=522226\nCOPYRIGHT =1991
EXTT0=
EXTT1=
EXTT2=
EXTT3=
EXTT4=
EXTT5=
EXTT6=
EXTT7=
EXTT8=
EXTT9=
EXTT10=
EXTT11=
EXTT12=
PLAYORDER=
